<svg xmlns="http://www.w3.org/2000/svg" viewBox="0 0 128 128">
  <rect width="128" height="128" fill="#F7DF1E"/>
  <path d="M34.5 95.3c2.3 3.8 5.4 6.7 10.9 6.7 4.6 0 7.5-2.3 7.5-5.5 0-3.8-3-5.1-8.1-7.4l-2.8-1.2c-8-3.4-13.4-7.7-13.4-16.7 0-8.3 6.3-14.7 16.2-14.7 7 0 12.1 2.5 15.8 8.9l-8.6 5.5c-1.9-3.4-4-4.8-7.1-4.8-3.2 0-5.3 2.1-5.3 4.8 0 3.3 2.1 4.7 6.8 6.7l2.8 1.2c9.5 4.1 14.8 8.2 14.8 17.5 0 10-7.9 15.5-18.5 15.5-10.4 0-17.1-5-20.4-11.5l9-5.2zm45.2.1c1.8 3.1 3.3 5.8 7.2 5.8 3.7 0 6-1.4 6-7V60h11.1v34.3c0 11.5-6.8 16.7-16.6 16.7-8.9 0-14.1-4.6-16.7-10.2l9-5.4z" fill="#323330"/>
</svg> 