<svg xmlns="http://www.w3.org/2000/svg" viewBox="0 0 128 128">
  <path fill="#3776AB" d="M63.4 1.98c-24.7 0-23.16 10.76-23.16 10.76l.03 11.15h23.58v3.34H40.26s-16.47-1.9-16.47 24.1c0 26 14.37 25.1 14.37 25.1h8.56V65.07s-.46-14.4 14.2-14.4h24.45s13.73.23 13.73-13.3V14.56s2.76-12.58-23.15-12.58zM50 8.9c2.35 0 4.25 1.9 4.25 4.24 0 2.35-1.9 4.26-4.25 4.26-2.35 0-4.25-1.9-4.25-4.26C45.75 10.8 47.65 8.9 50 8.9"/>
  <path fill="#FFD43B" d="M64.96 90.8c24.7 0 23.16-10.76 23.16-10.76l-.03-11.15H64.5v-3.34h23.58s16.47 1.9 16.47-24.1c0-26-14.37-25.1-14.37-25.1h-8.56v11.36s.46 14.4-14.2 14.4H42.98s-13.73-.23-13.73 13.3v22.8s-2.76 12.6 23.15 12.6zm13.4-7.03c-2.36 0-4.26-1.9-4.26-4.24 0-2.36 1.9-4.26 4.26-4.26 2.34 0 4.24 1.9 4.24 4.26 0 2.34-1.9 4.24-4.24 4.24"/>
</svg>
